<?xml version="1.0" encoding="utf-8"?>
<!-- Generator: Adobe Illustrator 21.1.0, SVG Export Plug-In . SVG Version: 6.00 Build 0)  -->
<svg version="1.1" id="Layer_1" xmlns="http://www.w3.org/2000/svg" xmlns:xlink="http://www.w3.org/1999/xlink" x="0px" y="0px"
	 viewBox="0 0 106 106" style="enable-background:new 0 0 106 106;" xml:space="preserve">
<style type="text/css">
	.st0{fill:#FFFFFF;stroke:#BDBEC0;stroke-miterlimit:10;}
	.st1{fill:#424143;}
	.st2{fill:#D7DF28;}
	.st3{fill:#BE202E;}
	.st4{fill:#F2F2F2;}
	.st5{fill:#BFBF31;}
</style>
<path class="st0" d="M94.5,0.6H11.5c-6.1,0-11,4.9-11,11v82.9c0,6.1,4.9,11,11,11h82.9c6.1,0,11-4.9,11-11V11.5
	C105.4,5.5,100.5,0.6,94.5,0.6L94.5,0.6z M94.5,0.6"/>
<g>
	<path class="st1" d="M19,55.7h-2.9V54c0-1.2-0.9-2.1-2.1-2.1c-1.2,0-2.1,0.9-2.1,2.1v1.7h0c-1.2,0-2.1,0.9-2.1,2.1
		c0,1.2,0.9,2.1,2.1,2.1H19c1.2,0,2.1-0.9,2.1-2.1C21.1,56.6,20.2,55.7,19,55.7z"/>
	<path class="st1" d="M87,55.7h2.9V54c0-1.2,0.9-2.1,2.1-2.1c1.2,0,2.1,0.9,2.1,2.1v1.7h0c1.2,0,2.1,0.9,2.1,2.1
		c0,1.2-0.9,2.1-2.1,2.1H87c-1.2,0-2.1-0.9-2.1-2.1C84.9,56.6,85.8,55.7,87,55.7z"/>
	<path class="st2" d="M81.3,30.5H51.5H39.3H24.1c-3.1,0-5.6,2.5-5.6,5.6v25c0,3.1,2.5,5.6,5.6,5.6h15.1h12.3h29.7
		c3.1,0,5.6-2.5,5.6-5.6v-25C86.9,33,84.3,30.5,81.3,30.5z M50.2,51.9c0,1.1-0.9,1.9-1.9,1.9H38.1H34h-5.1c-1.1,0-1.9-0.9-1.9-1.9
		v-8.5c0-1.1,0.9-1.9,1.9-1.9H34h4.2h10.1c1.1,0,1.9,0.9,1.9,1.9V51.9z M80.8,51.9c0,1.1-0.9,1.9-1.9,1.9H68.8h-4.2h-5.1
		c-1.1,0-1.9-0.9-1.9-1.9v-8.5c0-1.1,0.9-1.9,1.9-1.9h5.1h4.2h10.1c1.1,0,1.9,0.9,1.9,1.9V51.9z"/>
	<path class="st3" d="M16.9,34.3c0-3.6,3-6.6,6.6-6.6h17.8h14.5h26.1c3.6,0,6.6,3,6.6,6.6H16.9z"/>
	<path class="st3" d="M88.7,66.5c0,1.3-1.1,2.4-2.4,2.4H18.9c-1.3,0-2.4-1.1-2.4-2.4l0,0c0-1.3,1.1-2.4,2.4-2.4h67.4
		C87.6,64.1,88.7,65.2,88.7,66.5L88.7,66.5z"/>
	<circle class="st1" cx="39.1" cy="69.8" r="8.6"/>
	<circle class="st1" cx="69" cy="69.8" r="8.6"/>
	<circle class="st4" cx="39.1" cy="69.8" r="2.5"/>
	<circle class="st4" cx="69" cy="69.8" r="2.5"/>
	<path class="st5" d="M78.2,69.8L78.2,69.8c0-5.8-4.7-10.4-10.4-10.4c-5.8,0-10.4,4.7-10.4,10.4v0H78.2z"/>
	<path class="st2" d="M79.6,69.8L79.6,69.8c0-5.8-4.7-10.4-10.4-10.4c-5.8,0-10.4,4.7-10.4,10.4v0H79.6z"/>
	<path class="st5" d="M48.7,69.8L48.7,69.8c0-5.8-4.7-10.4-10.4-10.4c-5.8,0-10.4,4.7-10.4,10.4v0H48.7z"/>
	<path class="st2" d="M50.1,69.8L50.1,69.8c0-5.8-4.7-10.4-10.4-10.4c-5.8,0-10.4,4.7-10.4,10.4v0H50.1z"/>
</g>
<g>
</g>
<g>
</g>
<g>
</g>
<g>
</g>
<g>
</g>
<g>
</g>
</svg>
