<?xml version="1.0" encoding="utf-8"?>
<!-- Generator: Adobe Illustrator 21.1.0, SVG Export Plug-In . SVG Version: 6.00 Build 0)  -->
<svg version="1.1" id="Layer_1" xmlns="http://www.w3.org/2000/svg" xmlns:xlink="http://www.w3.org/1999/xlink" x="0px" y="0px"
	 viewBox="0 0 106 106" style="enable-background:new 0 0 106 106;" xml:space="preserve">
<style type="text/css">
	.st0{fill:#FFFFFF;stroke:#BDBEC0;stroke-miterlimit:10;}
	.st1{fill:#8FC640;}
	.st2{fill:#E6E7E7;}
	.st3{fill:#424143;}
	.st4{fill:#F2F2F2;}
	.st5{fill:#849239;}
</style>
<path class="st0" d="M94.5,0.6H11.5c-6.1,0-11,4.9-11,11v82.9c0,6.1,4.9,11,11,11h82.9c6.1,0,11-4.9,11-11V11.5
	C105.4,5.5,100.5,0.6,94.5,0.6L94.5,0.6z M94.5,0.6"/>
<g>
	<path class="st1" d="M6.9,53.9c0.3,0.6,1.7,4.4,2,7.8c0,0,0.5,2.5,0.9,2.8c0.4,0.3,3.4,0.6,3.6,0.5c0,0,2-7.8,10.4-6.1
		c7.4,1.5,6.6,9.8,6.6,9.8s0,0.7,1.6,0.7c1.6,0,41.9,0.2,41.9,0.2s1,0,1-0.9c0,0-1.1-8.4,7.4-9.9c6.7-1.2,8.9,7,8.9,7
		s-0.1,0.4,0.6,0.4c0.7-0.1,4.3-0.3,4.3-0.4c0-0.1,0.4,0.1,0.4-1.1c0-1.2,0.4-8.4-0.4-11.4c0,0-0.8-2.4-1.7-3.6
		c-0.9-1.2-19.7-4.1-19.7-4.1L63.1,35.3c0,0,0.3-1-1.1-1.4c0,0-7.1-0.7-15.3-1c-8.7-0.3-18.6-0.3-20.8,0.2c0,0-2.1-0.1-2.8,0.4
		c0,0-14.8,11.3-14.9,18c0,0,0.2,1-0.3,1.3l-0.9,0C7,52.8,6.7,53.3,6.9,53.9z M44.1,49v-9.7c0,0,9.6,0.1,11.8,0.1
		c2.2,0.1,2.5,0.6,3.4,1.3c0.9,0.6,6.1,6.2,7.3,7.8c1.2,1.6,0,1.9,0,1.9s-21.2-0.3-21.9-0.2C44,50.2,44.1,49,44.1,49z M17.4,47.6
		c0.9-1.4,5.2-6.6,5.2-6.6s1.1-1.5,3.4-1.7c2.2-0.2,13.9-0.2,13.9-0.2s0.8-0.2,0.8,1c0,1.2,0.1,8.5,0.1,8.5s0.1,1.1-1.2,1.4
		c-1.4,0.2-21.9-0.6-21.9-0.6S16.5,49,17.4,47.6z"/>
	<path class="st2" d="M71.3,48.6c0,0-8-8.9-8.3-9.5c-0.4-0.5-1.1-0.5-0.4-1.3c0.5-0.6,0.6-1.7,0.7-2.3l11.3,10
		C74.7,47.8,71.3,48.6,71.3,48.6z"/>
	<path class="st3" d="M93.7,59.9c0,0-1.5-0.2-1.3,0.9c0.2,1,0.6,1.8,0.6,1.8s0,0.4,1,0.4c1,0,3.8,0.5,4.2,0.3c0.4-0.2,1.1-1.8,1.1-3
		c0-1.3-0.8-3.6-1.7-4.8c-0.9-1.2-1.3-1.5-1.3-1.5s-0.5,0.4-0.4,1c0.1,0.6,1,4.4,0.6,4.7C96,60,93.7,59.9,93.7,59.9z"/>
	<circle class="st3" cx="83.1" cy="66.3" r="7"/>
	<circle class="st4" cx="83.1" cy="66.3" r="2.8"/>
	<circle class="st3" cx="22.1" cy="66.3" r="7"/>
	<circle class="st4" cx="22.1" cy="66.3" r="2.8"/>
	<path class="st5" d="M76.4,46.1c0,0,2.9,1.9-1.9,3.9c0,0,13.8,1.5,16.3,2.7c0,0-8.7-2.6-14.8-2.9C76,49.9,79.7,47.5,76.4,46.1z"/>
	<path class="st5" d="M67.6,50.1c0,0,0.7,0.2,0.8,0.4c0,0,2,10.1,0.3,14.4l-26.6-0.1c0,0-2-9,0.2-13.8c0,0-2.7,3.7-0.6,14.1H69
		c0,0,2-7.6-0.1-14.2C68.9,50.9,69.1,50.5,67.6,50.1z"/>
	<path class="st5" d="M22.6,34.6c0,0-0.2,1.8-1.4,3.3C20.1,39.3,9.6,50.6,9.6,50.6s-0.2,0.9-0.5,1.8c0,0,0.5-1.6,1.4-2.3
		c0.8-0.7,10.8-11.6,11.2-12.2C22,37.3,22.5,36.3,22.6,34.6z"/>
</g>
<g>
</g>
<g>
</g>
<g>
</g>
<g>
</g>
<g>
</g>
<g>
</g>
</svg>
