<?xml version="1.0" encoding="utf-8"?>
<!-- Generator: Adobe Illustrator 21.1.0, SVG Export Plug-In . SVG Version: 6.00 Build 0)  -->
<svg version="1.1" id="Layer_1" xmlns="http://www.w3.org/2000/svg" xmlns:xlink="http://www.w3.org/1999/xlink" x="0px" y="0px"
	 viewBox="0 0 106 106" style="enable-background:new 0 0 106 106;" xml:space="preserve">
<style type="text/css">
	.st0{fill:#FFFFFF;stroke:#BDBEC0;stroke-miterlimit:10;}
	.st1{fill:#F15B2B;}
	.st2{opacity:0.2;fill:#424143;}
	.st3{fill:#EE8D28;}
	.st4{fill:#2BACE2;}
	.st5{fill:#2DC1F1;}
</style>
<path class="st0" d="M94.5,0.6H11.5c-6.1,0-11,4.9-11,11v82.9c0,6.1,4.9,11,11,11h82.9c6.1,0,11-4.9,11-11V11.5
	C105.4,5.5,100.5,0.6,94.5,0.6L94.5,0.6z M94.5,0.6"/>
<g>
	<g>
		
			<rect x="14.5" y="39" transform="matrix(0.8966 -0.4429 0.4429 0.8966 -16.9787 14.8777)" class="st1" width="17.7" height="9.6"/>
		
			<rect x="15.6" y="43.7" transform="matrix(0.8966 -0.4429 0.4429 0.8966 -17.8561 15.5992)" class="st2" width="17.7" height="4.6"/>
		<rect x="42" y="25.4" transform="matrix(0.8966 -0.4429 0.4429 0.8966 -8.1089 25.6658)" class="st1" width="17.7" height="9.6"/>
		
			<rect x="43.2" y="30.1" transform="matrix(0.8966 -0.4429 0.4429 0.8966 -8.9863 26.3872)" class="st2" width="17.7" height="4.6"/>
		<path class="st3" d="M76.5,44.5c1.1,2.2,0.2,4.8-2,5.9L24.3,75.2c-2.2,1.1-4.8,0.2-5.9-2l-8-16.1c-1.1-2.2-0.2-4.8,2-5.9
			l50.2-24.8c2.2-1.1,4.8-0.2,5.9,2L76.5,44.5z"/>
		<path class="st1" d="M73.6,46.3c1,2,0.1,4.5-1.9,5.5L24.1,75.3c-2.1,1-4.6,0.2-5.5-1.8l-7.3-14.8c-1-2-0.1-4.5,1.9-5.5l47.6-23.5
			c2.1-1,4.6-0.2,5.5,1.8L73.6,46.3z"/>
	</g>
	<g>
		<rect x="39.9" y="50.6" class="st4" width="17.7" height="9.6"/>
		<rect x="39.9" y="55.6" class="st2" width="17.7" height="4.6"/>
		<rect x="70.6" y="50.6" class="st4" width="17.7" height="9.6"/>
		<rect x="70.6" y="55.6" class="st2" width="17.7" height="4.6"/>
		<path class="st5" d="M96,79.6c0,2.4-2,4.4-4.4,4.4h-56c-2.4,0-4.4-2-4.4-4.4v-18c0-2.4,2-4.4,4.4-4.4h56c2.4,0,4.4,2,4.4,4.4V79.6
			z"/>
		<path class="st4" d="M92.7,79.9c0,2.2-1.9,4.1-4.2,4.1H35.4c-2.3,0-4.2-1.8-4.2-4.1V63.4c0-2.2,1.9-4.1,4.2-4.1h53.1
			c2.3,0,4.2,1.8,4.2,4.1V79.9z"/>
	</g>
</g>
<g>
</g>
<g>
</g>
<g>
</g>
<g>
</g>
<g>
</g>
<g>
</g>
</svg>
