<?xml version="1.0" encoding="utf-8"?>
<!-- Generator: Adobe Illustrator 21.1.0, SVG Export Plug-In . SVG Version: 6.00 Build 0)  -->
<svg version="1.1" id="Layer_1" xmlns="http://www.w3.org/2000/svg" xmlns:xlink="http://www.w3.org/1999/xlink" x="0px" y="0px"
	 viewBox="0 0 106 106" style="enable-background:new 0 0 106 106;" xml:space="preserve">
<style type="text/css">
	.st0{fill:#FFFFFF;stroke:#BDBEC0;stroke-miterlimit:10;}
	.st1{fill:#424143;}
	.st2{fill:#01A79D;}
	.st3{fill:#67308F;}
	.st4{fill:#F2F2F2;}
	.st5{fill:#0E8E82;}
</style>
<path class="st0" d="M94.5,0.6H11.5c-6.1,0-11,4.9-11,11v82.9c0,6.1,4.9,11,11,11h82.9c6.1,0,11-4.9,11-11V11.5
	C105.4,5.5,100.5,0.6,94.5,0.6L94.5,0.6z M94.5,0.6"/>
<g>
	<path class="st1" d="M26,52.8c0,1.4-1.1,2.6-2.6,2.6h-8.7c-1.4,0-2.6-1.1-2.6-2.6l0,0c0-1.4,1.1-2.6,2.6-2.6h8.7
		C24.9,50.2,26,51.4,26,52.8L26,52.8z"/>
	<path class="st1" d="M17.3,45.6c1.4,0,2.6,1.1,2.6,2.6V52c0,1.4-1.1,2.6-2.6,2.6l0,0c-1.4,0-2.6-1.1-2.6-2.6v-3.8
		C14.7,46.8,15.9,45.6,17.3,45.6L17.3,45.6z"/>
	<path class="st2" d="M23,31.7v32.4h21.9V31.7H23z M40.6,48.2h-9V35.5h9V48.2z"/>
	<path class="st3" d="M49.4,32.3c0-0.1,0-0.1,0-0.2c0-2.2-1.8-4-4-4H16.1c-2.2,0-4,1.8-4,4c0,0.1,0,0.1,0,0.2H49.4z"/>
	<path class="st3" d="M60.2,47.5c0,2-1.6,3.5-3.5,3.5l0,0c-2,0-3.5-1.6-3.5-3.5v-6.9c0-2,1.6-3.5,3.5-3.5l0,0c2,0,3.5,1.6,3.5,3.5
		V47.5z"/>
	<polygon class="st3" points="68.4,32.9 71.6,44.3 79.6,44.3 81.4,32.8 	"/>
	<path class="st2" d="M89.2,55.5c0,4.5-3.7,8.2-8.2,8.2H44.8c-4.5,0-2.9-3.7-2.9-8.2v-5.2c0-4.5-1.7-8.2,2.9-8.2H81
		c4.5,0,8.2,3.7,8.2,8.2V55.5z"/>
	<path class="st3" d="M93.9,66.1c0,1.4-1.1,2.6-2.6,2.6H20.2c-1.4,0-2.6-1.1-2.6-2.6l0,0c0-1.4,1.1-2.6,2.6-2.6h71.1
		C92.8,63.5,93.9,64.7,93.9,66.1L93.9,66.1z"/>
	<circle class="st1" cx="40.2" cy="67.4" r="10.5"/>
	<circle class="st1" cx="76.8" cy="67.4" r="10.5"/>
	<circle class="st4" cx="40.2" cy="67.4" r="3.1"/>
	<circle class="st4" cx="76.8" cy="67.4" r="3.1"/>
	<path class="st5" d="M88.2,67.4L88.2,67.4c0-7.1-5.7-12.8-12.8-12.8c-7.1,0-12.8,5.7-12.8,12.8v0H88.2z"/>
	<path class="st2" d="M89.9,67.4L89.9,67.4c0-7.1-5.7-12.8-12.8-12.8c-7.1,0-12.8,5.7-12.8,12.8v0H89.9z"/>
	<path class="st5" d="M52,67.4L52,67.4c0-7.1-5.7-12.8-12.8-12.8c-7.1,0-12.8,5.7-12.8,12.8v0H52z"/>
	<path class="st2" d="M53.7,67.4L53.7,67.4c0-7.1-5.7-12.8-12.8-12.8c-7.1,0-12.8,5.7-12.8,12.8v0H53.7z"/>
</g>
<g>
</g>
<g>
</g>
<g>
</g>
<g>
</g>
<g>
</g>
<g>
</g>
</svg>
