<?xml version="1.0" encoding="utf-8"?>
<!-- Generator: Adobe Illustrator 21.1.0, SVG Export Plug-In . SVG Version: 6.00 Build 0)  -->
<svg version="1.1" id="Layer_1" xmlns="http://www.w3.org/2000/svg" xmlns:xlink="http://www.w3.org/1999/xlink" x="0px" y="0px"
	 viewBox="0 0 106 106" style="enable-background:new 0 0 106 106;" xml:space="preserve">
<style type="text/css">
	.st0{fill:#FFFFFF;stroke:#BDBEC0;stroke-miterlimit:10;}
	.st1{fill:#292562;}
	.st2{fill:#67308F;}
	.st3{fill:#424143;}
	.st4{fill:#F2F2F2;}
	.st5{fill:#C3996C;}
	.st6{fill:#A97D51;}
	.st7{fill:#8B5F3D;}
</style>
<path class="st0" d="M94.5,0.6H11.5c-6.1,0-11,4.9-11,11v82.9c0,6.1,4.9,11,11,11h82.9c6.1,0,11-4.9,11-11V11.5
	C105.4,5.5,100.5,0.6,94.5,0.6L94.5,0.6z M94.5,0.6"/>
<g>
	<g>
		<path class="st1" d="M30,63.3c0.3,1.4-0.3,2.8-1.5,3.1l0,0c-1.2,0.3-2.4-0.6-2.8-2l-7.6-31.5c-0.3-1.4,0.5-2.3,1.7-2.6l0,0
			c1.2-0.3,2.3,0.1,2.7,1.6L30,63.3z"/>
		<g>
			<path class="st1" d="M20.2,32.2c-2.6,0.6-4.8,0.3-6.7-1C10,28.8,9.3,24,9.3,23.8l-0.1-0.8l16.6-4l0.3,0.8
				c0.1,0.2,1.8,4.7-0.2,8.4C24.8,30.2,22.9,31.5,20.2,32.2z M11.3,24.4c0.3,1.3,1.2,3.9,3.3,5.3c1.4,0.9,3.1,1.2,5.2,0.7
				c2.2-0.5,3.7-1.6,4.5-3.1c1.1-2.1,0.7-4.8,0.3-6.1L11.3,24.4z"/>
		</g>
	</g>
	<path class="st1" d="M93.9,79.1c0,0.5-0.4,1-1,1H29.2c-0.6,0-1-0.4-1-1V59.5c0-0.5,0.4-1,1-1H93c0.5,0,1,0.4,1,1V79.1z"/>
	<path class="st2" d="M96.9,68.3c0,0.5-0.4,1-1,1H26c-0.5,0-1-0.4-1-1v-10c0-0.5,0.4-1,1-1h69.9c0.5,0,1,0.4,1,1V68.3z"/>
	<ellipse class="st3" cx="38.9" cy="80.3" rx="7" ry="6.7"/>
	<ellipse class="st4" cx="38.9" cy="80.3" rx="2.8" ry="2.7"/>
	<ellipse class="st3" cx="84.9" cy="80.3" rx="7" ry="6.7"/>
	<ellipse class="st4" cx="84.9" cy="80.3" rx="2.8" ry="2.7"/>
	<g>
		
			<rect x="54.1" y="20.7" transform="matrix(-1 -1.224647e-16 1.224647e-16 -1 146.7539 78.0302)" class="st5" width="38.5" height="36.7"/>
		<polygon class="st6" points="76.2,30.6 75.3,31.6 74.3,30.6 73.4,31.6 72.4,30.6 71.5,31.6 70.5,30.6 69.6,31.5 69.6,20.7 
			77.2,20.7 77.2,31.5 		"/>
		
			<rect x="65.6" y="51.9" transform="matrix(-1 -1.224647e-16 1.224647e-16 -1 134.6593 106.9647)" class="st6" width="3.4" height="3.2"/>
		
			<rect x="61" y="51.9" transform="matrix(-1 -1.224647e-16 1.224647e-16 -1 125.4095 106.9647)" class="st6" width="3.4" height="3.2"/>
		
			<rect x="56.4" y="51.9" transform="matrix(-1 -1.224647e-16 1.224647e-16 -1 116.1597 106.9647)" class="st6" width="3.4" height="3.2"/>
	</g>
	<g>
		
			<rect x="32.6" y="36.8" transform="matrix(-1 -1.224647e-16 1.224647e-16 -1 86.7034 94.0996)" class="st7" width="21.6" height="20.6"/>
		<polygon class="st5" points="45,42.3 44.4,42.9 43.9,42.3 43.4,42.9 42.8,42.3 42.3,42.9 41.7,42.3 41.2,42.8 41.2,36.8 
			45.5,36.8 45.5,42.8 		"/>
		
			<rect x="39" y="54.3" transform="matrix(-1 -1.224647e-16 1.224647e-16 -1 79.9102 110.3512)" class="st5" width="1.9" height="1.8"/>
		
			<rect x="36.4" y="54.3" transform="matrix(-1 -1.224647e-16 1.224647e-16 -1 74.7149 110.3512)" class="st5" width="1.9" height="1.8"/>
		
			<rect x="33.8" y="54.3" transform="matrix(-1 -1.224647e-16 1.224647e-16 -1 69.5196 110.3512)" class="st5" width="1.9" height="1.8"/>
	</g>
</g>
<g>
</g>
<g>
</g>
<g>
</g>
<g>
</g>
<g>
</g>
<g>
</g>
</svg>
