<?xml version="1.0" encoding="utf-8"?>
<!-- Generator: Adobe Illustrator 21.1.0, SVG Export Plug-In . SVG Version: 6.00 Build 0)  -->
<svg version="1.1" id="Layer_1" xmlns="http://www.w3.org/2000/svg" xmlns:xlink="http://www.w3.org/1999/xlink" x="0px" y="0px"
	 viewBox="0 0 106 106" style="enable-background:new 0 0 106 106;" xml:space="preserve">
<style type="text/css">
	.st0{fill:#FFFFFF;stroke:#BDBEC0;stroke-miterlimit:10;}
	.st1{fill:#F89521;}
	.st2{fill:#EDDA20;}
	.st3{fill:#424143;}
	.st4{fill:none;stroke:#424143;stroke-width:5;stroke-miterlimit:10;}
</style>
<path class="st0" d="M94.5,0.6H11.5c-6.1,0-11,4.9-11,11v82.9c0,6.1,4.9,11,11,11h82.9c6.1,0,11-4.9,11-11V11.5
	C105.4,5.5,100.5,0.6,94.5,0.6L94.5,0.6z M94.5,0.6"/>
<g>
	<path class="st1" d="M86.2,21.2c0,0-19.4-8.1-27.8,2.9c-8.4,11-1.1,22.3-1.1,22.3S84.8,30,86.2,21.2z"/>
	<path class="st1" d="M25.5,55.5c0,0-5.4-8.4-10.2-4.3c-4.8,4.2-6.3,13.3-4.7,15.8c1.6,2.5,9,2.9,9.6-1.9c0.5-4.8-1.5-9.1,0.8-8.3
		c2.3,0.9,2.9,1.5,2.9,1.5S24.3,55.6,25.5,55.5z"/>
	<path class="st2" d="M42.3,80.5C14.8,75.2,17.4,44.8,41.9,53c18.4,6.2,13.7-5.6,17.5-13.5c2.8-5.9,8.3-10.2,8.3-10.2
		c-3.9-4.8-0.4-6.4,1.7-5.8c2.1,0.7,3.6,3.4,3.6,3.4c2.6-0.5,7.4,1.4,7.4,1.4l10.1-12.2l-5.6,14.7c0,0,9.2,3.8,11,11.2
		c1.8,7.4-4.8,9.4-10.6,7.9c-5.8-1.5-9.8-5.5-13.1-4C68.8,47.5,81,88.1,42.3,80.5z"/>
	<path class="st1" d="M56.9,51.2c0,0,9.4,8.6,3.3,12.8c-6,4.2-22.1,3.3-22.3-2.9c-0.2-6.2,2.9-8.2,2.9-8.2s3.2,1.9,9.7,1.9
		C57,54.8,56.9,51.2,56.9,51.2z"/>
	<path class="st1" d="M95.8,42.1c-0.8-3.3-3-5.8-5.2-7.7c-2.8,1.6-8.8,6.2-4.3,15.6c0,0.1,0.1,0.1,0.1,0.2
		C91.9,51.3,97.5,49.1,95.8,42.1z"/>
	<circle class="st3" cx="76.2" cy="32.8" r="1.6"/>
	<g>
		<path class="st3" d="M78.3,68.3c-3.2,5.9-8.4,11.1-14.1,14.6c-14.9,9.1-31.5,2.2-43.9-7.8C18.9,74,17,75.9,18.3,77
			c13,10.5,29.7,17.5,45.6,9.1c6.8-3.6,13-9.7,16.7-16.4C81.4,68.1,79.1,66.8,78.3,68.3L78.3,68.3z"/>
	</g>
	<line class="st4" x1="68.6" y1="81.5" x2="65" y2="76.8"/>
	<line class="st4" x1="30.2" y1="82.5" x2="33.3" y2="77.5"/>
</g>
<g>
</g>
<g>
</g>
<g>
</g>
<g>
</g>
<g>
</g>
<g>
</g>
</svg>
