<?xml version="1.0" encoding="utf-8"?>
<!-- Generator: Adobe Illustrator 21.1.0, SVG Export Plug-In . SVG Version: 6.00 Build 0)  -->
<svg version="1.1" id="Layer_1" xmlns="http://www.w3.org/2000/svg" xmlns:xlink="http://www.w3.org/1999/xlink" x="0px" y="0px"
	 viewBox="0 0 106 106" style="enable-background:new 0 0 106 106;" xml:space="preserve">
<style type="text/css">
	.st0{fill:url(#SVGID_1_);}
	.st1{fill:url(#SVGID_2_);}
	.st2{fill:#E6E7E8;}
</style>
<linearGradient id="SVGID_1_" gradientUnits="userSpaceOnUse" x1="0.5646" y1="53" x2="105.4354" y2="53">
	<stop  offset="0" style="stop-color:#E6E7E8"/>
	<stop  offset="1" style="stop-color:#909090"/>
</linearGradient>
<path class="st0" d="M94.5,0.6H11.5c-6.1,0-11,4.9-11,11v82.9c0,6.1,4.9,11,11,11h82.9c6.1,0,11-4.9,11-11V11.5
	C105.4,5.5,100.5,0.6,94.5,0.6L94.5,0.6z M94.5,0.6"/>
<linearGradient id="SVGID_2_" gradientUnits="userSpaceOnUse" x1="3.991" y1="53" x2="102.009" y2="53" gradientTransform="matrix(-1 0 0 1 106 0)">
	<stop  offset="0" style="stop-color:#E6E7E8"/>
	<stop  offset="1" style="stop-color:#909090"/>
</linearGradient>
<path class="st1" d="M14.3,4C8.6,4,4,8.6,4,14.3v77.5C4,97.4,8.6,102,14.3,102h77.5c5.7,0,10.2-4.6,10.2-10.3V14.2
	C102,8.6,97.4,4,91.8,4H14.3L14.3,4z M14.3,4"/>
<g>
	<path class="st2" d="M76.1,76.8c0.1,0.5,0.1,0.9-0.3,1.2c-0.3,0.3-0.9,0.5-1.7,0.5c-0.8,0.1-7.5-0.1-7.9-0.2s-0.7-0.3-0.9-0.5
		c-0.2-0.2-0.3-0.5-0.5-0.8L57,60.5c-0.3-0.6-1.2-0.7-1.5-0.1l-9.4,16.5c-0.2,0.3-0.3,0.6-0.5,0.8c-0.2,0.2-0.5,0.4-0.9,0.5
		s-6.8,0.3-7.5,0.2c-0.7-0.1-1.2-0.3-1.5-0.5c-0.3-0.3-0.3-0.7-0.2-1.2s11-20.5,12.7-23.6c0.1-0.3,0.1-0.6,0-0.8
		c-1.7-3.1-12.7-23-12.8-23.5c-0.2-0.6-0.2-1,0-1.3c0.4-0.4,1.2-0.4,2.1-0.2c0.8,0.1,8.2,1.3,8.6,1.4c0.4,0.1,0.7,0.3,0.9,0.5
		s0.3,0.5,0.5,0.8l8,15c0.3,0.6,1.2,0.6,1.5,0l8-15c0.2-0.3,0.3-0.6,0.5-0.8s0.4-0.4,0.8-0.5s7.5-1.4,8.3-1.5
		c0.9-0.1,1.3,0.2,1.5,0.5c0.3,0.3,0.4,0.7,0.2,1.2c-0.1,0.5-1.3,2.5-1.8,3.4L63.6,52.4c-0.1,0.3-0.1,0.6,0,0.8
		C65.3,56.3,76,76.3,76.1,76.8z"/>
	<path class="st2" d="M94,47.4c0,0.5,0,0.8-0.1,1.2c0,0.3-0.1,0.6-0.2,0.8s-0.2,0.3-0.3,0.4c-0.1,0.1-0.2,0.1-0.4,0.1h-6.5
		c-0.6,0-1.1,0.5-1.1,1.1v23.3c0,0.2-0.1,0.3-0.2,0.4s-0.3,0.2-0.5,0.3c-0.2,0.1-0.5,0.1-0.9,0.2c-0.4,0-0.9,0.1-1.5,0.1
		s-1.1,0-1.5-0.1c-0.4,0-0.7-0.1-0.9-0.2c-0.2-0.1-0.4-0.2-0.5-0.3c-0.1-0.1-0.2-0.3-0.2-0.4V51c0-0.6-0.5-1.1-1.1-1.1h-6.5
		c-0.2,0-0.3,0-0.4-0.1s-0.2-0.2-0.3-0.4c-0.1-0.2-0.1-0.5-0.2-0.8c0-0.3-0.1-0.7-0.1-1.2s0-0.9,0.1-1.2c0-0.3,0.1-0.6,0.2-0.8
		s0.2-0.3,0.3-0.4c0.1-0.1,0.2-0.1,0.4-0.1h21.3c0.1,0,0.3,0,0.4,0.1s0.2,0.2,0.3,0.4c0.1,0.2,0.1,0.5,0.2,0.8
		C94,46.5,94,46.9,94,47.4z"/>
	<path class="st2" d="M36.9,64.9c0,0.4-0.1,0.7-0.2,1c-0.1,0.3-0.3,0.5-0.5,0.7s-0.5,0.3-0.7,0.4c-0.3,0.1-0.6,0.1-0.9,0.1H32
		c-0.5,0-1-0.1-1.4-0.2s-0.8-0.3-1.1-0.6c-0.3-0.3-0.7-0.7-1-1.2s-0.7-1.1-1.1-1.9l-7.5-14.1c-0.2-0.4-0.4-0.8-0.6-1.2
		c-0.2-0.5-0.1-0.3-0.4-0.8c-0.6-1.3-1.5-0.9-1.5-0.2c0,0.5,0,1,0,1.6s0,1.2,0,1.9v15.8c0,0.2,0,0.3-0.1,0.4s-0.2,0.2-0.4,0.3
		c-0.2,0.1-0.5,0.2-0.9,0.2s-0.8,0.1-1.4,0.1c-0.5,0-1,0-1.4-0.1c-0.4,0-0.6-0.1-0.8-0.2c-0.2-0.1-0.3-0.2-0.4-0.3
		c0-0.2,0-0.3,0-0.5V39c0-0.7,0.2-1.3,0.6-1.6c0.4-0.4,1-0.5,1.6-0.5h3.3c0.6,0,1.1,0.1,1.5,0.2c0.4,0.1,0.8,0.3,1.1,0.5
		c0.3,0.2,0.6,0.6,0.9,1s0.6,0.9,0.9,1.5L27.7,51c0.3,0.7,0.7,1.3,1,2c0.3,0.6,0.7,1.3,1,1.9c0.1,0.2,0.2,0.4,0.3,0.6
		c0.4,0.9,1.4,1.1,1.4-0.2c0-1.2,0-2.3,0-3.4V37.7c0-0.2,0-0.3,0.1-0.4c0.1-0.1,0.2-0.2,0.5-0.3c0.2-0.1,0.5-0.2,0.9-0.2
		s0.8-0.1,1.4-0.1c0.5,0,1,0,1.3,0.1c0.4,0,0.6,0.1,0.8,0.2c0.2,0.1,0.3,0.2,0.4,0.3c0.1,0.1,0.1,0.3,0.1,0.4V64.9z"/>
</g>
<g>
</g>
<g>
</g>
<g>
</g>
<g>
</g>
<g>
</g>
<g>
</g>
</svg>
