<?xml version="1.0" encoding="utf-8"?>
<!-- Generator: Adobe Illustrator 21.1.0, SVG Export Plug-In . SVG Version: 6.00 Build 0)  -->
<svg version="1.1" id="Layer_1" xmlns="http://www.w3.org/2000/svg" xmlns:xlink="http://www.w3.org/1999/xlink" x="0px" y="0px"
	 viewBox="0 0 106 106" style="enable-background:new 0 0 106 106;" xml:space="preserve">
<style type="text/css">
	.st0{fill:#FFFFFF;stroke:#BDBEC0;stroke-miterlimit:10;}
	.st1{fill:#424143;}
	.st2{fill:#8FC640;}
	.st3{fill:#F8ED33;}
</style>
<path class="st0" d="M94.5,0.6H11.5c-6.1,0-11,4.9-11,11v82.9c0,6.1,4.9,11,11,11h82.9c6.1,0,11-4.9,11-11V11.5
	C105.4,5.5,100.5,0.6,94.5,0.6L94.5,0.6z M94.5,0.6"/>
<g>
	<g>
		<path class="st1" d="M64.8,68.2c6.8,1.5,6.9,7.5,3.4,12.7c-1.7,2.5-7.4,9-3.5,12.2c3.6,3,8.7-0.1,11.7-2.6c1.6-1.3,6.6-6,5.5-8.9
			c-1.3-3.5-8.4,3.1-9.3,4.3c-4.9,7.3,13.4,4.3,15.1,4.1c0.8-0.1,0.7-1.4-0.1-1.3c-2.6,0.4-19.1,3-12.7-3.5c1.3-1.3,3-2.4,4.7-3
			c3.2-1.1-2.6,6-3,6.4c-2.1,2.3-5.1,4.1-8.3,4.4c-5.8,0.6-2.6-6.4-1.1-8.7c2.2-3.4,4.9-6.1,4.9-10.4c0-3.7-3.9-6.3-7.1-7
			C64.3,66.7,64,68,64.8,68.2L64.8,68.2z"/>
	</g>
	<polygon class="st2" points="65.1,68.2 61.5,16.6 24.2,10 24.2,10 24.2,10 24.2,10 24.2,10 17.7,47.4 65.1,68.2 65.1,68.3 
		65.1,68.2 65.1,68.3 	"/>
	<polygon class="st2" points="65.1,68.2 61.5,16.6 24.2,10 24.2,10 24.2,10 24.2,10 24.2,10 17.7,47.4 65.1,68.2 65.1,68.3 
		65.1,68.2 65.1,68.3 	"/>
	<polygon class="st3" points="39.5,31.9 24.2,10 24.2,10 24.2,10 24.2,10 24.2,10 17.7,47.2 	"/>
	<polygon class="st3" points="65.1,68.2 65.1,68.3 65.1,68.2 61.5,16.6 61.4,16.6 39.5,32 64.8,68.2 65.1,68.2 65.1,68.3 	"/>
	<polygon class="st2" points="70.8,70.5 74.3,66.2 77.3,70.1 70.8,71.3 68,75.3 65.7,71.2 	"/>
	<polygon class="st3" points="70,78.4 74.1,77.3 74.2,81 69.7,78.9 66.2,80.1 66.6,76.6 	"/>
	<polygon class="st3" points="64,89.7 66.4,87.9 67.5,90.4 64,90.1 61.9,91.8 61.3,89.3 	"/>
	<polygon class="st2" points="69,93 69.6,90.1 72,91.2 69.2,93.4 68.8,96 66.7,94.5 	"/>
	<polygon class="st3" points="74.4,91.6 73.2,88.9 75.8,88.4 74.8,91.7 76,94.1 73.5,94.1 	"/>
	<polygon class="st3" points="73.9,85.1 72.1,83.8 73.6,82.5 74.2,85.1 75.8,86.2 74.2,87.2 	"/>
	<polygon class="st2" points="82.6,89.8 82.7,87.5 84.6,88.1 82.8,90 82.8,92 81,91.2 	"/>
	<polygon class="st2" points="79.4,86.4 76.4,86.1 77.2,83.6 79.7,86.1 82.3,86.2 81.1,88.5 	"/>
	<polygon class="st2" points="66.4,84 70,82.4 70.7,85.8 66.2,84.5 63.2,86.1 63.1,82.8 	"/>
</g>
<g>
</g>
<g>
</g>
<g>
</g>
<g>
</g>
<g>
</g>
<g>
</g>
</svg>
