<?xml version="1.0" encoding="utf-8"?>
<!-- Generator: Adobe Illustrator 21.1.0, SVG Export Plug-In . SVG Version: 6.00 Build 0)  -->
<svg version="1.1" id="Layer_1" xmlns="http://www.w3.org/2000/svg" xmlns:xlink="http://www.w3.org/1999/xlink" x="0px" y="0px"
	 viewBox="0 0 106 106" style="enable-background:new 0 0 106 106;" xml:space="preserve">
<style type="text/css">
	.st0{fill:#FFFFFF;stroke:#BDBEC0;stroke-miterlimit:10;}
	.st1{fill:#424143;}
	.st2{fill:#F2F2F2;}
</style>
<path class="st0" d="M94.5,0.6H11.5c-6.1,0-11,4.9-11,11v82.9c0,6.1,4.9,11,11,11h82.9c6.1,0,11-4.9,11-11V11.5
	C105.4,5.5,100.5,0.6,94.5,0.6L94.5,0.6z M94.5,0.6"/>
<g>
	<circle class="st1" cx="53" cy="53" r="38.6"/>
	<path class="st2" d="M63,89.3l6.3-10.9l12-0.3c-0.1,0.6-0.3,1.2-0.4,1.7c4.6-4.8,8-10.7,9.6-17.3c-0.6,0.7-1.1,1.1-1.1,1.1l-6-11.1
		l6-10.4c0.3,0.3,0.6,0.6,0.9,0.9C88.6,36.6,85.4,31,81,26.4c0.2,0.6,0.2,1,0.2,1l-12.6-0.7L63,16.2c0.3-0.1,0.6-0.2,0.9-0.2
		c-3.5-1-7.1-1.6-10.9-1.6c-3.8,0-7.4,0.5-10.9,1.6c0.3,0.1,0.6,0.2,1,0.2l-5.7,10.6l-12.6,0.7c0,0,0.1-0.4,0.3-1.1
		C20.7,31,17.4,36.6,15.7,43c0.3-0.3,0.6-0.7,1-1l6,10.4l-6,11.1c0,0-0.5-0.4-1.2-1.2c1.7,6.7,5.1,12.7,9.7,17.5
		c-0.2-0.6-0.3-1.2-0.4-1.8l12,0.3l6.3,10.9c0,0-0.8,0.2-2,0.4c3.7,1.2,7.7,1.9,11.9,1.9c4.1,0,8.1-0.7,11.9-1.9
		C63.7,89.6,63,89.3,63,89.3z"/>
	<polygon class="st1" points="46.8,42.1 59,42.1 65.8,53.1 59.6,63.9 47.2,63.9 40.2,52.1 	"/>
</g>
<g>
</g>
<g>
</g>
<g>
</g>
<g>
</g>
<g>
</g>
<g>
</g>
</svg>
