<?xml version="1.0" encoding="utf-8"?>
<!-- Generator: Adobe Illustrator 21.1.0, SVG Export Plug-In . SVG Version: 6.00 Build 0)  -->
<svg version="1.1" id="Layer_1" xmlns="http://www.w3.org/2000/svg" xmlns:xlink="http://www.w3.org/1999/xlink" x="0px" y="0px"
	 viewBox="0 0 106 106" style="enable-background:new 0 0 106 106;" xml:space="preserve">
<style type="text/css">
	.st0{fill:#FFFFFF;stroke:#BDBEC0;stroke-miterlimit:10;}
	.st1{fill:#424143;}
	.st2{fill:#F8ED33;}
	.st3{fill:#595A5C;}
</style>
<path class="st0" d="M94.5,0.6H11.5c-6.1,0-11,4.9-11,11v82.9c0,6.1,4.9,11,11,11h82.9c6.1,0,11-4.9,11-11V11.5
	C105.4,5.5,100.5,0.6,94.5,0.6L94.5,0.6z M94.5,0.6"/>
<g>
	<path class="st1" d="M91.2,65.8c0,8.9-31,15.2-41,15.2c-22.6,0-41-7.2-41-16.1s18.3-16.1,41-16.1C63.8,48.7,91.2,56.9,91.2,65.8z"
		/>
	<circle class="st2" cx="22.8" cy="62.6" r="4.5"/>
	<circle class="st2" cx="35.1" cy="65.1" r="5.5"/>
	<circle class="st2" cx="49.6" cy="64.5" r="5.5"/>
	<circle class="st2" cx="65.4" cy="63.9" r="5.5"/>
	<path class="st1" d="M53.8,50.9c0,1.1,0.9,2,2,2l0,0c1.1,0,2-0.9,2-2V27.1c0-1.1-0.9-2-2-2l0,0c-1.1,0-2,0.9-2,2V50.9z"/>
	<path class="st1" d="M57.5,26.6c0,0.8-0.7,1.5-1.5,1.5h-7.1c-0.8,0-1.5-0.7-1.5-1.5l0,0c0-0.8,0.7-1.5,1.5-1.5H56
		C56.8,25.1,57.5,25.8,57.5,26.6L57.5,26.6z"/>
	<ellipse class="st2" cx="93.7" cy="59.4" rx="1.9" ry="6.6"/>
	<ellipse class="st3" cx="92.5" cy="65.7" rx="4.3" ry="1.9"/>
	<ellipse class="st2" cx="93.7" cy="73.2" rx="1.9" ry="6.6"/>
</g>
<g>
</g>
<g>
</g>
<g>
</g>
<g>
</g>
<g>
</g>
<g>
</g>
</svg>
