<?xml version="1.0" encoding="utf-8"?>
<!-- Generator: Adobe Illustrator 21.1.0, SVG Export Plug-In . SVG Version: 6.00 Build 0)  -->
<svg version="1.1" id="Layer_1" xmlns="http://www.w3.org/2000/svg" xmlns:xlink="http://www.w3.org/1999/xlink" x="0px" y="0px"
	 viewBox="0 0 106 106" style="enable-background:new 0 0 106 106;" xml:space="preserve">
<style type="text/css">
	.st0{fill:#FFFFFF;stroke:#BDBEC0;stroke-miterlimit:10;}
	.st1{fill:#F7D634;}
	.st2{fill:#FBB042;}
	.st3{fill:#D79543;}
	.st4{fill:#F0AA49;}
	.st5{fill:#424143;}
	.st6{fill:#F2F2F2;}
</style>
<path class="st0" d="M94.5,0.6H11.5c-6.1,0-11,4.9-11,11v82.9c0,6.1,4.9,11,11,11h82.9c6.1,0,11-4.9,11-11V11.5
	C105.4,5.5,100.5,0.6,94.5,0.6L94.5,0.6z M94.5,0.6"/>
<g>
	<ellipse class="st1" cx="60.6" cy="30.5" rx="15.7" ry="16.9"/>
	<path class="st2" d="M85,35.8c0,0-6.2,0.9-8.8-2.9c0,0-2.4,2.5-5.5,3.7c0,0,0.3,1.7,6.4,2.4C83.1,39.8,89.3,36.3,85,35.8z"/>
	<path class="st1" d="M67.3,43.7c0,0,14.4,18.6,4.9,32.1C62.6,89.2,37.6,93,25.3,75.9c-5.2-7.3-3.6-15.1-3.6-15.1s-4-8.4-1-11.3
		c3-2.9,0.3,2.5,4.6,4.1c4.3,1.6,12.6-2.1,15.6-6.8c3-4.8,7.4-7.2,13-5.7C59.6,42.7,67.3,43.7,67.3,43.7z"/>
	<path class="st3" d="M63.7,53.5c0,0-4.5-6.3-19.1,1.7c-14.6,8-17.6,7.3-17.6,7.3s8,10.6,22,11.8C63,75.5,69.7,64.5,63.7,53.5z"/>
	<path class="st4" d="M62.1,51.5c0,0-5.7-5-18.2,6.3C31.4,69.2,28.3,69.2,28.3,69.2s10.1,8.4,23.9,6.2
		C66.1,73.1,70.2,60.8,62.1,51.5z"/>
	<ellipse class="st5" cx="67.9" cy="27.6" rx="3" ry="3.2"/>
	<ellipse class="st5" cx="63.5" cy="84.8" rx="7" ry="7.5"/>
	<ellipse class="st6" cx="63.5" cy="84.8" rx="2.8" ry="3"/>
	<ellipse class="st5" cx="38.6" cy="84.8" rx="7" ry="7.5"/>
	<ellipse class="st6" cx="38.6" cy="84.8" rx="2.8" ry="3"/>
	<ellipse class="st6" cx="68.8" cy="26.2" rx="1.3" ry="1.4"/>
</g>
<g>
</g>
<g>
</g>
<g>
</g>
<g>
</g>
<g>
</g>
<g>
</g>
</svg>
