<?xml version="1.0" encoding="utf-8"?>
<!-- Generator: Adobe Illustrator 21.1.0, SVG Export Plug-In . SVG Version: 6.00 Build 0)  -->
<svg version="1.1" id="Layer_1" xmlns="http://www.w3.org/2000/svg" xmlns:xlink="http://www.w3.org/1999/xlink" x="0px" y="0px"
	 viewBox="0 0 106 106" style="enable-background:new 0 0 106 106;" xml:space="preserve">
<style type="text/css">
	.st0{fill:#FFFFFF;stroke:#BDBEC0;stroke-miterlimit:10;}
	.st1{fill:#FFDE11;}
	.st2{fill:#BE202E;}
	.st3{fill:#3DB54A;}
	.st4{fill:#EF4237;}
	.st5{fill:#67308F;}
	.st6{fill:#F2F2F2;}
	.st7{opacity:0.2;fill:#424143;}
</style>
<path class="st0" d="M94.5,0.6H11.5c-6.1,0-11,4.9-11,11v82.9c0,6.1,4.9,11,11,11h82.9c6.1,0,11-4.9,11-11V11.5
	C105.4,5.5,100.5,0.6,94.5,0.6L94.5,0.6z M94.5,0.6"/>
<g>
	<circle class="st1" cx="53" cy="53" r="39.9"/>
	<path class="st2" d="M91.9,44c-3.1-13.6-13.2-24.5-26.2-28.8c-0.1,0.1-0.2,0.1-0.2,0.1c0.6,8.6-2.2,20.3-2.2,20.3
		C83.1,37.3,89.9,42.1,91.9,44z"/>
	<path class="st3" d="M92.9,53c0-3.1-0.4-6-1-8.9c-2.7-2.6-12.9-11.4-27.3-8.2c0,0,12.9,32.9,2.3,54.5C82,84.8,92.9,70.2,92.9,53z"
		/>
	<path class="st4" d="M23.1,26.6c-6.2,7-10,16.3-10,26.4c0,9.6,3.4,18.5,9.1,25.3c4.6-20.8,38.7-43.1,38.7-43.1S44.9,16,23.1,26.6z"
		/>
	<path class="st5" d="M21.8,28.1c4.5-0.6,28.9-3,41.2,9c0,0,3.4-14.5,2.5-21.9c0,0-1-0.4-2.6-0.9c-3.2-0.8-6.5-1.2-9.9-1.2
		C40.4,13.1,29.1,19,21.8,28.1z"/>
	<ellipse class="st6" cx="63.3" cy="35.6" rx="11.2" ry="10"/>
	<path class="st7" d="M91.6,42.8c-4,17.7-19.9,31-38.9,31c-18.5,0-34.1-12.6-38.6-29.7c-0.7,2.9-1,5.8-1,8.9
		C13.1,75,31,92.9,53,92.9C75,92.9,92.9,75,92.9,53C92.9,49.5,92.4,46.1,91.6,42.8z"/>
</g>
<g>
</g>
<g>
</g>
<g>
</g>
<g>
</g>
<g>
</g>
<g>
</g>
</svg>
