<?xml version="1.0" encoding="utf-8"?>
<!-- Generator: Adobe Illustrator 21.1.0, SVG Export Plug-In . SVG Version: 6.00 Build 0)  -->
<svg version="1.1" id="Layer_1" xmlns="http://www.w3.org/2000/svg" xmlns:xlink="http://www.w3.org/1999/xlink" x="0px" y="0px"
	 viewBox="0 0 106 106" style="enable-background:new 0 0 106 106;" xml:space="preserve">
<style type="text/css">
	.st0{fill:#FFFFFF;stroke:#BDBEC0;stroke-miterlimit:10;}
	.st1{fill:#424143;}
	.st2{fill:#F89521;}
	.st3{fill:#2075BC;}
	.st4{fill:#29AAE1;}
	.st5{fill:#67308F;}
	.st6{fill:#FBB042;}
	.st7{fill:#F2F2F2;}
</style>
<path class="st0" d="M94.5,0.6H11.5c-6.1,0-11,4.9-11,11v82.9c0,6.1,4.9,11,11,11h82.9c6.1,0,11-4.9,11-11V11.5
	C105.4,5.5,100.5,0.6,94.5,0.6L94.5,0.6z M94.5,0.6"/>
<g>
	<path class="st1" d="M74.3,36.6c0,1.3-1.1,2.4-2.4,2.4h-3.9c-1.3,0-2.4-1.1-2.4-2.4l-1.3-11c0-1.3,1.4-2.4,3.1-2.4h5.1
		c1.7,0,3.1,1.1,3.1,2.4L74.3,36.6z"/>
	<path class="st2" d="M87.3,50.2c0,2.6-2.1,4.8-4.8,4.8H40.3c-2.6,0-4.8-2.1-4.8-4.8v-8.1c0-2.6,2.1-4.8,4.8-4.8h42.3
		c2.6,0,4.8,2.1,4.8,4.8V50.2z"/>
	<path class="st3" d="M94.2,63.9c0,2.6-2.1,4.8-4.8,4.8h-61c-2.6,0-4.8-2.1-4.8-4.8v-8.1c0-2.6,2.1-4.8,4.8-4.8h61
		c2.6,0,4.8,2.1,4.8,4.8V63.9z"/>
	<path class="st4" d="M8.8,59.9c0,0.3,0,0.6,0,1c0,12.1,19.8,21.9,44.1,21.9S97,72.9,97,60.8c0-0.3,0-0.6,0-1H8.8z"/>
	<path class="st5" d="M99.9,59.3c0,1.4-1.2,2.6-2.6,2.6H8.7c-1.4,0-2.6-1.2-2.6-2.6l0,0c0-1.4,1.2-2.6,2.6-2.6h88.6
		C98.7,56.7,99.9,57.9,99.9,59.3L99.9,59.3z"/>
	<g>
		<path class="st6" d="M48.3,46.3c0,1.3-1.1,2.4-2.4,2.4h-4.2c-1.3,0-2.4-1.1-2.4-2.4v-3.8c0-1.3,1.1-2.4,2.4-2.4h4.2
			c1.3,0,2.4,1.1,2.4,2.4V46.3z"/>
		<path class="st7" d="M47.6,46c0,1.1-0.9,2-2,2H42c-1.1,0-2-0.9-2-2v-3.2c0-1.1,0.9-2,2-2h3.5c1.1,0,2,0.9,2,2V46z"/>
	</g>
	<g>
		<path class="st6" d="M60.4,46.3c0,1.3-1.1,2.4-2.4,2.4h-4.2c-1.3,0-2.4-1.1-2.4-2.4v-3.8c0-1.3,1.1-2.4,2.4-2.4H58
			c1.3,0,2.4,1.1,2.4,2.4V46.3z"/>
		<path class="st7" d="M59.6,46c0,1.1-0.9,2-2,2h-3.5c-1.1,0-2-0.9-2-2v-3.2c0-1.1,0.9-2,2-2h3.5c1.1,0,2,0.9,2,2V46z"/>
	</g>
	<g>
		<path class="st6" d="M72.4,46.3c0,1.3-1.1,2.4-2.4,2.4h-4.2c-1.3,0-2.4-1.1-2.4-2.4v-3.8c0-1.3,1.1-2.4,2.4-2.4h4.2
			c1.3,0,2.4,1.1,2.4,2.4V46.3z"/>
		<path class="st7" d="M71.7,46c0,1.1-0.9,2-2,2h-3.5c-1.1,0-2-0.9-2-2v-3.2c0-1.1,0.9-2,2-2h3.5c1.1,0,2,0.9,2,2V46z"/>
	</g>
	<g>
		<path class="st6" d="M84.5,46.3c0,1.3-1.1,2.4-2.4,2.4h-4.2c-1.3,0-2.4-1.1-2.4-2.4v-3.8c0-1.3,1.1-2.4,2.4-2.4h4.2
			c1.3,0,2.4,1.1,2.4,2.4V46.3z"/>
		<path class="st7" d="M83.8,46c0,1.1-0.9,2-2,2h-3.5c-1.1,0-2-0.9-2-2v-3.2c0-1.1,0.9-2,2-2h3.5c1.1,0,2,0.9,2,2V46z"/>
	</g>
</g>
<g>
</g>
<g>
</g>
<g>
</g>
<g>
</g>
<g>
</g>
<g>
</g>
</svg>
