<?xml version="1.0" encoding="utf-8"?>
<!-- Generator: Adobe Illustrator 21.1.0, SVG Export Plug-In . SVG Version: 6.00 Build 0)  -->
<svg version="1.1" id="Layer_1" xmlns="http://www.w3.org/2000/svg" xmlns:xlink="http://www.w3.org/1999/xlink" x="0px" y="0px"
	 viewBox="0 0 106 106" style="enable-background:new 0 0 106 106;" xml:space="preserve">
<style type="text/css">
	.st0{fill:#FFFFFF;stroke:#BDBEC0;stroke-miterlimit:10;}
	.st1{fill:#92AD3C;}
	.st2{fill:#849239;}
	.st3{fill:#BDCE31;}
	.st4{fill:#F2F2F2;}
	.st5{fill:#424143;}
</style>
<path class="st0" d="M94.5,0.6H11.5c-6.1,0-11,4.9-11,11v82.9c0,6.1,4.9,11,11,11h82.9c6.1,0,11-4.9,11-11V11.5
	C105.4,5.5,100.5,0.6,94.5,0.6L94.5,0.6z M94.5,0.6"/>
<g>
	<path class="st1" d="M10.9,36c0.1,9.4,23.1,5.2,23.1,5.2s0.7,4.1-2,7.5c-2.7,3.4-8.3,26.7,19.8,28.8c0,0,21.8,17.6,43.2,1.9
		c0,0,1.2-2-2.6-1.2c-3.8,0.8-17.6,0.3-22.6-8.1c-5-8.4-17.6-26.8-24.4-30.7c0,0,3.4-18.5-9.5-19.6C25.2,19,10.8,26.6,10.9,36z"/>
	<path class="st2" d="M33.1,47.7c0,0-2.1,3-4.1,1.3c-2-1.7-6.2,0.8-6.9,1.6l4.1,0.8L26,53.5c0,0,3.3-2.7,3.9-0.7
		c0.8,2.6,5.7-1.8,5.7-1.8L33.1,47.7z"/>
	<path class="st2" d="M36.8,55.2c0,0-8.6,10.8-2.6,19.2l-1.5,6.5c0,0-7.6,0-8.6,5.1c0,0,1-1.2,3.3-1.9c0,0-1.3,0.8-1.7,1.6h16.6
		c0,0,0.4-0.8-0.3-1.1c-0.7-0.3-3-1.4-2.8-3.5c0.2-2,1.7-5.7,1.7-5.7s5.1-1,5.1-3.8C46,68.7,41.3,57.1,36.8,55.2z"/>
	<path class="st2" d="M45.4,39.5l6-1.6l0.7,7.4l4.6,1.8l1.2,5.5l9.9,3.3l-3.6,5.4l5.2,2.7v5.5l5.9,0.7l1,5.3l2.9-2.1l3,4.1l4.4-2
		l0.9,2.9l4.6-2l1.6,1.6c0,0-1.7,3-11.2,1.4C72.8,78,57,58.3,53.5,52C50,45.8,45.4,39.5,45.4,39.5z"/>
	<path class="st1" d="M10.9,36c0.1,9.4,23.1,5.2,23.1,5.2s0.7,4.1-2,7.5c-2.7,3.4-8.3,26.7,19.8,28.8c0,0,21.8,17.6,43.2,1.9
		c0,0,1.2-2-2.6-1.2c-3.8,0.8-17.6,0.3-22.6-8.1c-5-8.4-17.6-26.8-24.4-30.7c0,0,3.4-18.5-9.5-19.6C25.2,19,10.8,26.6,10.9,36z"/>
	<path class="st3" d="M33.9,47c5.9-2.1,16.8,13.6,21.2,24c6.7,15.9,36.5,10.4,36.5,10.7c-20.2,11.6-39.8-4.1-39.8-4.1
		c-27-2-22.9-23.7-20.1-28.3C32.5,48,33.3,47.2,33.9,47z"/>
	<path class="st1" d="M43,52.1c0,0-0.6,3.6-3.1,2.9c-2.6-0.7-5.2,3.4-5.6,4.4l4-1l0.7,2c0,0,1.8-3.8,3.2-2.3c1.8,2,4.4-4,4.4-4
		L43,52.1z"/>
	<path class="st1" d="M47.8,55.4c0,0-8.6,10.8-2.6,19.2l-1.5,6.5c0,0-7.6,0-8.6,5.1c0,0,1-1.2,3.3-1.9c0,0-1.3,0.8-1.7,1.6h16.6
		c0,0,0.4-0.8-0.3-1.1c-0.7-0.3-3-1.4-2.8-3.5c0.2-2,1.7-5.7,1.7-5.7s5.1-1,5.1-3.8C57,69,52.3,57.4,47.8,55.4z"/>
	<path class="st4" d="M11.8,38.8c0,0,17.9-0.4,21.9-7.2c0,0,1.4,9.8-15.1,10.2C18.6,41.8,13.2,41.4,11.8,38.8z"/>
	<circle class="st5" cx="29.5" cy="28.7" r="1.7"/>
</g>
<g>
</g>
<g>
</g>
<g>
</g>
<g>
</g>
<g>
</g>
<g>
</g>
</svg>
