<?xml version="1.0" encoding="utf-8"?>
<!-- Generator: Adobe Illustrator 21.1.0, SVG Export Plug-In . SVG Version: 6.00 Build 0)  -->
<svg version="1.1" id="Layer_1" xmlns="http://www.w3.org/2000/svg" xmlns:xlink="http://www.w3.org/1999/xlink" x="0px" y="0px"
	 viewBox="0 0 106 106" style="enable-background:new 0 0 106 106;" xml:space="preserve">
<style type="text/css">
	.st0{fill:#FFFFFF;stroke:#BDBEC0;stroke-miterlimit:10;}
	.st1{fill:#06A64F;}
	.st2{opacity:0.2;fill:#424143;}
	.st3{fill:#F2F2F2;}
	.st4{fill:#FCB017;}
	.st5{opacity:0.1;fill:#424143;}
</style>
<path class="st0" d="M94.5,0.6H11.5c-6.1,0-11,4.9-11,11v82.9c0,6.1,4.9,11,11,11h82.9c6.1,0,11-4.9,11-11V11.5
	C105.4,5.5,100.5,0.6,94.5,0.6L94.5,0.6z M94.5,0.6"/>
<g>
	<path class="st1" d="M85.8,87c-1.5-0.3-3.3,0.2-4.9,1.3c-1.6,1.1-2.6,2.7-2.8,4.2c0.1,0.2,0.2,0.4,0.4,0.6c1.5,2.2,4.5,2.7,6.6,1.2
		c2.2-1.5,2.7-4.5,1.2-6.6C86.1,87.3,85.9,87.2,85.8,87z"/>
	<path class="st1" d="M82.7,87.2c0.7,0.9,0.4,2.2-0.5,2.9l0,0c-0.9,0.7-2.2,0.4-2.9-0.5L59,60.6c-0.7-0.9-0.4-2.2,0.5-2.9l0,0
		c0.9-0.7,2.2-0.4,2.9,0.5L82.7,87.2z"/>
	<path class="st2" d="M59.4,57.8c-0.9,0.7-1.2,1.9-0.5,2.9l1.4,2c0.6-0.4,1.2-0.7,1.8-1.2c0.5-0.4,1.1-0.8,1.6-1.2l-1.4-2.1
		C61.7,57.4,60.4,57.2,59.4,57.8z"/>
	
		<ellipse transform="matrix(0.8184 -0.5747 0.5747 0.8184 -14.1211 33.8774)" class="st1" cx="46.5" cy="39.3" rx="26.2" ry="26.2"/>
	<g>
		<path class="st3" d="M68.5,25.5c-1.5,8.2-7,16.7-15.6,22.8c-8.6,6.1-18.5,8.3-26.7,6.9c-0.6-0.6-1.2-1.3-1.7-2
			c0.2,0.4,0.5,0.7,0.7,1.1c0.8,1.1,1.6,2.1,2.5,3c8.3,1.4,18.1-0.9,26.7-6.9c8.6-6.1,14.1-14.5,15.6-22.8c-0.6-1.1-1.2-2.3-2-3.3
			c-0.3-0.4-0.5-0.7-0.8-1.1C67.6,23.9,68.1,24.7,68.5,25.5z"/>
		<path class="st3" d="M31.5,17.9c11.5-8,27.1-5.6,35.6,5.3c-0.2-0.4-0.4-0.7-0.7-1C58.2,10.3,41.9,7.5,30,15.8
			c-11.8,8.3-14.7,24.6-6.4,36.4c0.2,0.3,0.5,0.7,0.7,1C17,41.5,20,25.9,31.5,17.9z"/>
	</g>
	<path class="st4" d="M26.1,55.2c8.3,1.4,18.1-0.9,26.7-6.9c8.6-6.1,14.1-14.5,15.6-22.8c-0.6-1.1-1.2-2.3-2-3.3
		C58.2,10.3,41.9,7.5,30,15.8c-11.8,8.3-14.7,24.6-6.4,36.4C24.4,53.3,25.2,54.3,26.1,55.2z"/>
	<path class="st2" d="M30,15.8c-1.5,1-2.8,2.2-4,3.5c0.1,0.1,0.1,0.1,0.2,0.2c1.7,0.4,3.8-0.1,5.5-1.3c1.8-1.2,2.8-3,3.1-4.7
		c0-0.1-0.1-0.2-0.1-0.2C33.1,13.9,31.5,14.7,30,15.8z"/>
	<path class="st5" d="M28.1,53.5C19.3,41,21.6,24,32.9,14c-1,0.5-1.9,1.1-2.8,1.7c-11.8,8.3-14.7,24.6-6.4,36.4
		c0.8,1.1,1.6,2.1,2.5,3c1.2,0.2,2.4,0.3,3.6,0.4C29.2,54.9,28.6,54.2,28.1,53.5z"/>
	<path class="st1" d="M26.5,19c1.5,0.3,3.3-0.2,4.9-1.3c1.6-1.1,2.6-2.7,2.8-4.2c-0.1-0.2-0.2-0.4-0.4-0.6c-1.5-2.2-4.5-2.7-6.6-1.2
		s-2.7,4.5-1.2,6.6C26.2,18.7,26.4,18.8,26.5,19z"/>
</g>
<g>
</g>
<g>
</g>
<g>
</g>
<g>
</g>
<g>
</g>
<g>
</g>
</svg>
