<?xml version="1.0" encoding="utf-8"?>
<!-- Generator: Adobe Illustrator 21.1.0, SVG Export Plug-In . SVG Version: 6.00 Build 0)  -->
<svg version="1.1" id="Layer_1" xmlns="http://www.w3.org/2000/svg" xmlns:xlink="http://www.w3.org/1999/xlink" x="0px" y="0px"
	 viewBox="0 0 106 106" style="enable-background:new 0 0 106 106;" xml:space="preserve">
<style type="text/css">
	.st0{fill:#FFFFFF;stroke:#BDBEC0;stroke-miterlimit:10;}
	.st1{fill:#67308F;}
	.st2{opacity:0.6;fill:#424143;}
	.st3{fill:#BE202E;}
	.st4{opacity:0.2;fill:#424143;}
	.st5{fill:#EF4237;}
	.st6{fill:#F89521;}
	.st7{fill:#8FC640;}
	.st8{fill:#29AAE1;}
</style>
<path class="st0" d="M94.5,0.6H11.5c-6.1,0-11,4.9-11,11v82.9c0,6.1,4.9,11,11,11h82.9c6.1,0,11-4.9,11-11V11.5
	C105.4,5.5,100.5,0.6,94.5,0.6L94.5,0.6z M94.5,0.6"/>
<g>
	<path class="st1" d="M52.8,57.5c-2.8,0-5-1.4-5-3.2L50,20.9c0-1.8,1.3-3.2,2.8-3.2h0.3c1.6,0,2.8,1.4,2.8,3.2l2.3,33.4
		c0,1.8-2.2,3.2-5,3.2H52.8z"/>
	<path class="st2" d="M58.3,54.3V48c-1.7,0.4-8.6,1.3-8.9-8.2c-0.3-10.9,0.9-19.6,0.9-19.6s-0.1,0.6-0.2,1.7l-2.3,32.5
		c0,1.8,2.2,3.2,5,3.2h0.5C56,57.5,58.3,56.1,58.3,54.3z"/>
	<path class="st3" d="M92.8,81.1c0,4-2.1,7.2-4.6,7.2H17.8c-2.5,0-4.6-3.2-4.6-7.2v-0.7c0-4,2.1-7.2,4.6-7.2h70.4
		c2.5,0,4.6,3.2,4.6,7.2V81.1z"/>
	<path class="st4" d="M88.2,73.2h-9.1c0.5,2.5,1.8,12.4-11.9,12.8c-15.6,0.4-50.6,1.8-50.6,1.8s0.9,0.2,2.5,0.6h69
		c2.5,0,4.6-3.2,4.6-7.2v-0.7C92.8,76.4,90.8,73.2,88.2,73.2z"/>
	<path class="st5" d="M87.8,66.8c0,3.5-1.8,6.3-4,6.3H22.3c-2.2,0-4-2.8-4-6.3v-0.6c0-3.5,1.8-6.3,4-6.3h61.5c2.2,0,4,2.8,4,6.3
		V66.8z"/>
	<path class="st4" d="M83.7,59.9h-7.9c0.5,2.2,1.6,10.9-10.4,11.1c-13.6,0.3-44.1,1.6-44.1,1.6s0.8,0.2,2.2,0.5h60.3
		c2.2,0,4-2.8,4-6.3v-0.6C87.8,62.7,86,59.9,83.7,59.9z"/>
	<path class="st6" d="M80.6,55c0,2.8-1.4,5-3.2,5H28.5c-1.8,0-3.2-2.2-3.2-5v-0.5c0-2.8,1.4-5,3.2-5h48.9c1.8,0,3.2,2.2,3.2,5V55z"
		/>
	<path class="st4" d="M77.5,49.5h-6.3c0.4,1.7,1.3,8.6-8.2,8.9c-10.9,0.2-35.1,1.3-35.1,1.3s0.6,0.1,1.7,0.4h47.9
		c1.8,0,3.2-2.2,3.2-5v-0.5C80.6,51.7,79.2,49.5,77.5,49.5z"/>
	<path class="st7" d="M72.6,46c0,2-1,3.5-2.3,3.5H35.7c-1.2,0-2.3-1.6-2.3-3.5v-0.4c0-2,1-3.5,2.3-3.5h34.7c1.2,0,2.3,1.6,2.3,3.5
		V46z"/>
	<path class="st4" d="M70.3,42.1h-4.5c0.3,1.2,0.9,6.1-5.8,6.3c-7.7,0.2-24.9,0.9-24.9,0.9s0.4,0.1,1.2,0.3h34
		c1.2,0,2.3-1.6,2.3-3.5v-0.4C72.6,43.7,71.6,42.1,70.3,42.1z"/>
	<path class="st8" d="M65.5,40c0,1.2-0.6,2.3-1.4,2.3H42c-0.8,0-1.4-1-1.4-2.3v-0.2c0-1.2,0.6-2.3,1.4-2.3H64c0.8,0,1.4,1,1.4,2.3
		V40z"/>
	<path class="st4" d="M64,37.5h-2.8c0.2,0.8,0.6,3.9-3.7,4C52.6,41.6,41.6,42,41.6,42s0.3,0.1,0.8,0.2H64c0.8,0,1.4-1,1.4-2.3v-0.2
		C65.5,38.5,64.8,37.5,64,37.5z"/>
</g>
<g>
</g>
<g>
</g>
<g>
</g>
<g>
</g>
<g>
</g>
<g>
</g>
</svg>
