<?xml version="1.0" encoding="utf-8"?>
<!-- Generator: Adobe Illustrator 21.1.0, SVG Export Plug-In . SVG Version: 6.00 Build 0)  -->
<svg version="1.1" id="Layer_1" xmlns="http://www.w3.org/2000/svg" xmlns:xlink="http://www.w3.org/1999/xlink" x="0px" y="0px"
	 viewBox="0 0 106 106" style="enable-background:new 0 0 106 106;" xml:space="preserve">
<style type="text/css">
	.st0{fill:#FFFFFF;stroke:#BDBEC0;stroke-miterlimit:10;}
	.st1{fill:#9B2034;}
	.st2{fill:#BE202E;}
	.st3{fill:#F2F2F2;}
	.st4{fill:#F1F2F2;}
	.st5{fill:#7BA840;}
	.st6{fill:#8FC640;}
	.st7{fill:#208BA8;}
	.st8{fill:#29AAE1;}
</style>
<path class="st0" d="M94.5,0.6H11.5c-6.1,0-11,4.9-11,11v82.9c0,6.1,4.9,11,11,11h82.9c6.1,0,11-4.9,11-11V11.5
	C105.4,5.5,100.5,0.6,94.5,0.6L94.5,0.6z M94.5,0.6"/>
<g>
	<g>
		<path class="st1" d="M71.4,47.7c0,3.3-2.7,6.1-6.1,6.1H42.7c-3.3,0-6.1-2.7-6.1-6.1V25c0-3.3,2.7-6.1,6.1-6.1h22.7
			c3.3,0,6.1,2.7,6.1,6.1V47.7z"/>
		<path class="st2" d="M65.6,47.8c0,3.3-2.7,6.1-6.1,6.1H36.9c-3.3,0-6.1-2.7-6.1-6.1V25.1c0-3.3,2.7-6.1,6.1-6.1h22.7
			c3.3,0,6.1,2.7,6.1,6.1V47.8z"/>
		<g>
			<path class="st3" d="M57.6,51.7H38.8c-3.2,0-5.8-2.6-5.8-5.8V27.1c0-3.2,2.6-5.8,5.8-5.8h18.7c3.2,0,5.8,2.6,5.8,5.8v18.7
				C63.4,49,60.8,51.7,57.6,51.7z M38.8,22.9c-2.3,0-4.2,1.9-4.2,4.2v18.7c0,2.3,1.9,4.2,4.2,4.2h18.7c2.3,0,4.2-1.9,4.2-4.2V27.1
				c0-2.3-1.9-4.2-4.2-4.2H38.8z"/>
		</g>
		<g>
			<g>
				<path class="st4" d="M42.7,42c0.7,0.5,2.4,1.2,4.2,1.2c3.3,0,4.3-2.1,4.3-3.7c0-2.6-2.4-3.8-4.9-3.8h-1.4v-1.9h1.4
					c1.9,0,4.2-1,4.2-3.2c0-1.5-1-2.8-3.3-2.8c-1.5,0-3,0.7-3.8,1.2l-0.7-1.9c1-0.7,2.9-1.5,4.9-1.5c3.7,0,5.4,2.2,5.4,4.5
					c0,1.9-1.2,3.6-3.5,4.4v0.1c2.3,0.5,4.2,2.2,4.2,4.8c0,3-2.3,5.7-6.9,5.7c-2.1,0-4-0.7-4.9-1.3L42.7,42z"/>
			</g>
		</g>
	</g>
	<g>
		<path class="st5" d="M93.6,82.6c0,3.3-2.7,6.1-6.1,6.1H64.9c-3.3,0-6.1-2.7-6.1-6.1V59.9c0-3.3,2.7-6.1,6.1-6.1h22.7
			c3.3,0,6.1,2.7,6.1,6.1V82.6z"/>
		<path class="st6" d="M87.9,82.6c0,3.3-2.7,6.1-6.1,6.1H59.1c-3.3,0-6.1-2.7-6.1-6.1V59.9c0-3.3,2.7-6.1,6.1-6.1h22.7
			c3.3,0,6.1,2.7,6.1,6.1V82.6z"/>
		<g>
			<path class="st3" d="M79.8,86.5H61.1c-3.2,0-5.8-2.6-5.8-5.8V61.9c0-3.2,2.6-5.8,5.8-5.8h18.7c3.2,0,5.8,2.6,5.8,5.8v18.7
				C85.7,83.8,83,86.5,79.8,86.5z M61.1,57.7c-2.3,0-4.2,1.9-4.2,4.2v18.7c0,2.3,1.9,4.2,4.2,4.2h18.7c2.3,0,4.2-1.9,4.2-4.2V61.9
				c0-2.3-1.9-4.2-4.2-4.2H61.1z"/>
		</g>
		<g>
			<g>
				<path class="st4" d="M64.3,79.8v-1.6l2-1.9c4.8-4.6,7-7,7-9.9c0-1.9-0.9-3.7-3.7-3.7c-1.7,0-3.1,0.9-4,1.6l-0.8-1.8
					c1.3-1.1,3.2-1.9,5.3-1.9c4.1,0,5.8,2.8,5.8,5.5c0,3.5-2.5,6.3-6.5,10.1l-1.5,1.4v0.1h8.5v2.1H64.3z"/>
			</g>
		</g>
	</g>
	<g>
		<path class="st7" d="M52.9,82.5c0,3.3-2.7,6.1-6.1,6.1H24.2c-3.3,0-6.1-2.7-6.1-6.1V59.8c0-3.3,2.7-6.1,6.1-6.1h22.7
			c3.3,0,6.1,2.7,6.1,6.1V82.5z"/>
		<path class="st8" d="M47.2,82.6c0,3.3-2.7,6.1-6.1,6.1H18.4c-3.3,0-6.1-2.7-6.1-6.1V59.9c0-3.3,2.7-6.1,6.1-6.1h22.7
			c3.3,0,6.1,2.7,6.1,6.1V82.6z"/>
		<g>
			<path class="st3" d="M39.1,86.5H20.4c-3.2,0-5.8-2.6-5.8-5.8V61.9c0-3.2,2.6-5.8,5.8-5.8h18.7c3.2,0,5.8,2.6,5.8,5.8v18.7
				C45,83.8,42.4,86.5,39.1,86.5z M20.4,57.7c-2.3,0-4.2,1.9-4.2,4.2v18.7c0,2.3,1.9,4.2,4.2,4.2h18.7c2.3,0,4.2-1.9,4.2-4.2V61.9
				c0-2.3-1.9-4.2-4.2-4.2H20.4z"/>
		</g>
		<g>
			<g>
				<path class="st4" d="M29.2,63.3L29.2,63.3l-3.3,1.8l-0.5-1.9l4.1-2.2h2.2v18.9h-2.5V63.3z"/>
			</g>
		</g>
	</g>
</g>
<g>
</g>
<g>
</g>
<g>
</g>
<g>
</g>
<g>
</g>
<g>
</g>
</svg>
