<?xml version="1.0" encoding="utf-8"?>
<!-- Generator: Adobe Illustrator 21.1.0, SVG Export Plug-In . SVG Version: 6.00 Build 0)  -->
<svg version="1.1" id="Layer_1" xmlns="http://www.w3.org/2000/svg" xmlns:xlink="http://www.w3.org/1999/xlink" x="0px" y="0px"
	 viewBox="0 0 106 106" style="enable-background:new 0 0 106 106;" xml:space="preserve">
<style type="text/css">
	.st0{fill:#FFFFFF;stroke:#BDBEC0;stroke-miterlimit:10;}
	.st1{fill:#562C7C;}
	.st2{fill:#67308F;}
	.st3{fill:#0E9385;}
	.st4{fill:#01A79D;}
	.st5{fill:#29AAE1;}
	.st6{fill:#F2F2F2;}
	.st7{fill:#FBB042;}
	.st8{fill:#DA1A5D;}
	.st9{fill:#F1F2F2;}
	.st10{fill:#922A8E;}
	.st11{fill:#3DB54A;}
</style>
<path class="st0" d="M94.5,0.6H11.5c-6.1,0-11,4.9-11,11v82.9c0,6.1,4.9,11,11,11h82.9c6.1,0,11-4.9,11-11V11.5
	C105.4,5.5,100.5,0.6,94.5,0.6L94.5,0.6z M94.5,0.6"/>
<g>
	<g>
		<path class="st1" d="M62.5,85.1h2.4c0,0,0.6-1.8,1.9-3.5c2-2.6,6.7-4.3,11.1-1.2c2.1,1.4,2.8,2.8,4.5,4.7c0,0-1.1-10.9-12.1-9.9
			c-11,1.1-9.3,7.6-8.1,9.8"/>
		<path class="st2" d="M53,70.8v14.3h9.5c0.7-4.9,4.9-8.6,10-8.6c5.1,0,9.3,3.7,10,8.6h9.5V70.8H53z"/>
		<polygon class="st1" points="91.9,70.8 93.9,72.3 93.9,85.1 91.9,85.1 		"/>
	</g>
	<g>
		<path class="st3" d="M43.5,85.1h-2.4c0,0-0.6-1.8-1.9-3.5c-2-2.6-6.7-4.3-11.1-1.2c-2.1,1.4-2.8,2.8-4.5,4.7
			c0,0,1.1-10.9,12.1-9.9c11,1.1,9.3,7.6,8.1,9.8"/>
		<path class="st4" d="M53,70.8v14.3h-9.5c-0.7-4.9-4.9-8.6-10-8.6c-5.1,0-9.3,3.7-10,8.6h-9.5V70.8H53z"/>
		<polygon class="st3" points="14.1,70.8 12.1,72.3 12.1,85.1 14.1,85.1 		"/>
	</g>
	<rect x="42.6" y="50.2" class="st5" width="21.1" height="20.6"/>
	<g>
		<path class="st6" d="M48.4,52.2h3.1v5.6h0c0.6-0.8,1.6-1.4,3-1.4c2.3,0,4.1,1.9,4.1,5c0,3.5-2.2,5.3-4.5,5.3
			c-1.1,0-2.2-0.4-2.9-1.6h0l-0.1,1.4h-2.6c0-0.6,0.1-1.8,0.1-2.9V52.2z M51.5,62.3c0,0.2,0,0.4,0.1,0.5c0.2,0.8,0.9,1.4,1.8,1.4
			c1.3,0,2.1-1,2.1-2.8c0-1.5-0.7-2.7-2.1-2.7c-0.8,0-1.6,0.6-1.8,1.5c0,0.2-0.1,0.4-0.1,0.6V62.3z"/>
	</g>
	<rect x="21.5" y="50.2" class="st7" width="21.1" height="20.6"/>
	<g>
		<path class="st6" d="M36.2,64.1c0,0.9,0,1.8,0.1,2.4h-2.7l-0.2-1h-0.1c-0.6,0.8-1.6,1.2-2.8,1.2c-2,0-3.2-1.4-3.2-3
			c0-2.5,2.3-3.8,5.8-3.8v-0.1c0-0.5-0.3-1.3-1.8-1.3c-1,0-2.1,0.3-2.7,0.7l-0.6-2c0.7-0.4,2-0.9,3.8-0.9c3.3,0,4.3,1.9,4.3,4.2
			V64.1z M33.2,61.8c-1.6,0-2.8,0.4-2.8,1.5c0,0.8,0.5,1.2,1.2,1.2c0.8,0,1.4-0.5,1.6-1.1c0-0.2,0.1-0.3,0.1-0.5V61.8z"/>
	</g>
	<rect x="63.7" y="50.2" class="st8" width="21.1" height="20.6"/>
	<g>
		<g>
			<path class="st9" d="M75.6,59.2c-0.3-0.9-0.8-1.5-1.8-1.5c-1.3,0-2.3,1.2-2.3,3.9c0,3,1.1,4,2.3,4c1,0,1.6-0.7,1.9-1.8l1.8,0.2
				c-0.4,1.7-1.7,2.8-3.7,2.8c-2.6,0-4.1-1.5-4.1-5.1c0-3.5,1.7-5.1,4.2-5.1c2.1,0,3.2,1.1,3.6,2.5L75.6,59.2z"/>
		</g>
	</g>
	<rect x="32" y="29.6" class="st10" width="21.1" height="20.6"/>
	
		<rect x="57.7" y="25.1" transform="matrix(0.6689 -0.7433 0.7433 0.6689 -3.9914 62.3469)" class="st11" width="20.6" height="21.1"/>
	<g>
		<path class="st6" d="M40.7,40.7c0.1,1,1.1,1.5,2.2,1.5c0.8,0,1.5-0.1,2.2-0.3l0.3,1.7c-0.8,0.3-1.8,0.5-2.9,0.5
			c-2.7,0-4.2-1.6-4.2-4c0-2,1.2-4.2,4-4.2c2.5,0,3.5,2,3.5,3.9c0,0.4,0,0.8-0.1,1H40.7z M43.6,39c0-0.6-0.3-1.6-1.4-1.6
			c-1,0-1.5,0.9-1.5,1.6H43.6z"/>
	</g>
	<g>
		<path class="st6" d="M61.8,38.8l4.1-4.5l-0.8-0.7l1.2-1.3l0.8,0.7l0.2-0.2c0.6-0.7,1.6-1.3,2.5-1.3c0.8,0,1.6,0.4,2.1,0.9
			c0.4,0.4,0.7,0.7,0.9,1l-1.3,1.3c-0.1-0.2-0.3-0.4-0.5-0.6c-0.6-0.5-1.3-0.3-1.8,0.3l-0.3,0.3l1.2,1.1L68.8,37l-1.2-1l-4.1,4.5
			L61.8,38.8z"/>
	</g>
</g>
<g>
</g>
<g>
</g>
<g>
</g>
<g>
</g>
<g>
</g>
<g>
</g>
</svg>
